<svg xmlns="http://www.w3.org/2000/svg" xmlns:xlink="http://www.w3.org/1999/xlink" version="1.1" id="Your_Icon" x="0px" y="0px" width="100px" height="100px" viewBox="0 0 100 100" enable-background="new 0 0 100 100" xml:space="preserve">
<path fill="#2342CC" d="M85.739,68.773H14.671V44.873h71.068V68.773z M16.661,66.783h67.088v-19.92H16.661V66.783z"/>
<rect fill="#2342CC" x="22.254" y="47.659" width="2.507" height="12.001"/>
<rect fill="#2342CC" x="27.448" y="47.659" width="2.508" height="12.001"/>
<rect fill="#2342CC" x="45.359" y="47.659" width="2.508" height="12.001"/>
<rect fill="#2342CC" x="34.791" y="47.659" width="2.509" height="12.001"/>
<rect fill="#2342CC" x="39.985" y="47.659" width="2.508" height="12.001"/>
<rect fill="#2342CC" x="52.742" y="47.659" width="2.509" height="12.001"/>
<rect fill="#2342CC" x="57.938" y="47.659" width="2.507" height="12.001"/>
<rect fill="#2342CC" x="75.849" y="47.659" width="2.507" height="12.001"/>
<rect fill="#2342CC" x="65.281" y="47.659" width="2.507" height="12.001"/>
<rect fill="#2342CC" x="70.475" y="47.659" width="2.507" height="12.001"/>
<path fill="#2342CC" d="M12.939,35.301v12.358h74.51V35.301H12.939z M22.145,44.18c-1.444,0-2.617-1.171-2.617-2.617  c0-1.446,1.173-2.617,2.617-2.617c1.445,0,2.616,1.171,2.616,2.617C24.761,43.008,23.59,44.18,22.145,44.18z M29.956,44.097  c-1.445,0-2.618-1.172-2.618-2.617c0-1.446,1.173-2.617,2.618-2.617c1.444,0,2.617,1.171,2.617,2.617  C32.573,42.925,31.4,44.097,29.956,44.097z M84.743,44.18H45.359v-2.658h39.384V44.18z"/>
<rect fill="#2342CC" x="22.381" y="39.167" transform="matrix(0.8632 0.5048 -0.5048 0.8632 23.5297 -6.0237)" width="1" height="2.483"/>
<rect fill="#2342CC" x="29.83" y="41.539" transform="matrix(0.9035 0.4286 -0.4286 0.9035 21.024 -9.2875)" width="2.609" height="1"/>
</svg>